<?xml version="1.0" encoding="utf-8" ?>
<!DOCTYPE svg PUBLIC "-//W3C//DTD SVG 1.1//EN"
  "http://www.w3.org/Graphics/SVG/1.1/DTD/svg11.dtd">
<svg
  version="1.1"
  xmlns="http://www.w3.org/2000/svg"
  xmlns:xlink="http://www.w3.org/1999/xlink"
  viewBox="0 0 320 320"
  xml:space="preserve"
>
<defs>
    <style
      type="text/css"
    ><![CDATA[
      @keyframes anim-caution {
        0% { 
            filter: url(#f-noise);
            opacity: 0.5;
        }
        100% {
            filter: url(#f-baseShadow);
            opacity: 1;
        }
      }
      #g-character {
          filter: url(#f-baseShadow);
          animation: anim-caution 0.25s ease-in 3;
      }
    ]]></style>
    <filter id="f-noise" width="150%" height="150%">
        <feTurbulence
        type="fractalNoise"
        baseFrequency="0.995"
        numOctaves="1"
        seed="1"
        stitchTiles="noStitch"
      />
         <feComponentTransfer result="img">
            <feFuncG type="linear" slope="0" intercept="0.5" />
            <feFuncA type="linear" slope="0" intercept="1" />
         </feComponentTransfer>
         <feDisplacementMap
        in="SourceGraphic"
        in2="img"
        xChannelSelector="R"
        yChannelSelector="G"
        scale="200"
      >
            <animate
                id="anim-noise-01"
                attributeName="scale"
                from="200"
                to="0"
                begin="0s"
                dur="0.3s"
                repeatCount="1"
        />
         </feDisplacementMap>
    </filter>
    <filter id="f-baseShadow" width="130%" height="130%">
        <feGaussianBlur in="SourceAlpha" stdDeviation="8" result="blur" />
        <feOffset dy="6" />
        <feMerge>
            <feMergeNode />
            <feMergeNode in="SourceGraphic" />
        </feMerge>
    </filter>
</defs>
<g id="g-character">
    <g id="g-tooth">
        <path
        fill="#9CD8FF"
        d="M279.589,81.856l12.21,19.12l-26.8-3.25C269.969,91.887,274.959,86.547,279.589,81.856z"
      />
        <path
        fill="#9CD8FF"
        d="M262.609,101.205l13.39,14.17l-23.42-1.1C255.79,109.734,259.18,105.355,262.609,101.205z"
      />
        <path
        fill="#9CD8FF"
        d="M264.199,127.875l-20.17,0.98c1.96-3.4,4.07-6.74,6.28-10.01L264.199,127.875z"
      />
        <path
        fill="#9CD8FF"
        d="M254,185.875l1.46,17.12c-3.85-1.44-7.52-3.12-10.78-5.08L254,185.875z"
      />
        <path
        fill="#9CD8FF"
        d="M271,186.375l3.13,21.88c-4.86-1.01-9.95-2.29-14.85-3.91L271,186.375z"
      />
        <path
        fill="#9CD8FF"
        d="M291,185.072l0.89,25.7c-3.87-0.44-8.69-1.101-13.93-2.061L291,185.072z"
      />
    </g>
    <g id="g-body">
        <path
        fill="#001A46"
        d="M219,199.875c-17.99-21.22-8.54-83.59-1.82-116.92c-56.15,18.41-91.18,59.02-91.18,92.92
            c0,48.6,38.37,77.96,90,77c11.31-0.21,28.07-7.36,43.72-15.7C246.649,227.245,230.99,214.025,219,199.875z"
      />
        <path
        fill="#ECFF60"
        d="M291.89,210.075c-27.294-4.907-53.803-9.153-59.89-26.7c-11.404-32.874,34.263-88.208,57.16-110.15
            c-27.29-1.22-50.22,2.59-71.98,9.73c-6.72,33.33-16.17,95.7,1.82,116.92c11.99,14.15,27.65,27.37,40.72,37.3
            c21.7-11.56,41.28-25.43,41.28-26.3C301,210.875,297.376,211.062,291.89,210.075z"
      />
    </g>
    <path
      id="g-wing-back"
      fill="#CCD1A9"
      d="M116.616,184.788c0.134,0.669,0.243,1.354,0.332,2.052
        c-6.752,6.494-10.809,5.723-10.809,5.723c-10.287-31.814-19.822-7.91-19.822-7.91c-11.714-34.629-23.671-13.189-23.671-13.189
        c-4.778-21.66-6.357-30.99-25.704-19.188c4.21-13.583,11.916-26.623,24.83-31.947c9.542-3.93,22.779-0.849,29.398,7.603
        c8.903,11.386,15.404,24.269,20.046,37.313C113.506,171.679,115.299,178.214,116.616,184.788z"
    />
    <path
      id="g-wing-front"
      fill="#4C5A00"
      d="M114.839,183.214c0.706,0.319,1.412,0.676,2.112,1.055c1.395,10.544-2.07,13.775-2.07,13.775
        c-36.256-11.624-20.729,13.048-20.729,13.048c-39.818-12.175-28.202,13.096-28.202,13.096
        c-23.178-9.97-32.837-14.708-35.103,10.987c-9.643-12.903-16.416-28.673-12.552-44.127c2.859-11.416,14.677-21.591,26.946-22.091
        c16.521-0.66,32.789,1.892,47.945,6.269C100.665,177.382,107.894,180.063,114.839,183.214z"
    />
    <g id="g-eye">
        <path
        fill="#9FFFE5"
        d="M175.53,134.951c-4.663-1.613-9.321-3.146-13.934-4.607c-18.257-5.746-35.56-10.172-47.512-13.021
            c-5.395,25.324,4.409,42.566,25.161,50.866c9.002,3.596,23.622,6.867,36.376,3.14c4.624-1.351,8.839-3.548,12.368-6.522
            c5.771-4.824,9.727-11.656,10.751-19.801c0.048-0.377,0.095-0.753,0.131-1.137C191.348,140.682,183.446,137.703,175.53,134.951z"
      />
        <path
        fill="#FF652A"
        d="M175.53,134.951c-4.663-1.613-9.321-3.146-13.934-4.607c-5.853,6.26-8.736,13.979-7.226,21.59
            c1.894,9.545,10.229,16.617,21.251,19.396c4.631-1.327,8.839-3.548,12.368-6.522c5.771-4.824,9.727-11.656,10.751-19.801
            c0.048-0.377,0.095-0.753,0.131-1.137C191.348,140.682,183.446,137.703,175.53,134.951z"
      />
        <path
        fill="#2454AB"
        d="M198.872,143.869c-0.036,0.384-0.083,0.76-0.131,1.137c-1.024,8.145-4.981,14.977-10.751,19.801
            c-7.322-3.604-12.549-9.448-14.001-16.766c-0.88-4.434-0.277-8.896,1.542-13.09C183.446,137.703,191.348,140.682,198.872,143.869z
            "
      />
    </g>
</g>
</svg>
