<?xml version="1.0" encoding="utf-8"?>
<!DOCTYPE svg PUBLIC "-//W3C//DTD SVG 1.1//EN" "http://www.w3.org/Graphics/SVG/1.1/DTD/svg11.dtd">
<svg version="1.1" xmlns="http://www.w3.org/2000/svg" xmlns:xlink="http://www.w3.org/1999/xlink" x="0px" y="0px" width="128px" height="128px" viewBox="0 0 128 128" xml:space="preserve">
<g id="icon">
	<path fill="#00362E" d="M63.872,126C30.807,126,4,86.353,4,64.999C4,43.646,30.807,4,63.872,4h-0.003
		c33.065,0,59.872,39.646,59.872,60.998c0,21.354-26.807,61.002-59.872,61.002H63.872z"/>
	<g>
		<path fill="#9FFFE5" d="M4,64.639c3.771,5.469,22.862,38.632,59.485,38.632c36.623,0,55.714-33.163,59.485-38.632
			c-3.771-5.468-22.862-38.631-59.485-38.631C26.862,26.008,7.771,59.171,4,64.639z"/>
		<path fill="#9FFFE5" d="M62.872,64.639"/>
		<circle fill="#ECFF60" cx="64.924" cy="64.639" r="35.486"/>
		<path fill="#2454AB" d="M89.652,64.639c0,14.877-12.025,26.939-26.859,26.939c-14.834,0-26.859-12.063-26.859-26.939
			c0-14.878,12.025-26.939,26.859-26.939c13.444,0,24.965,9.869,26.823,23.348C89.625,61.116,89.652,63.244,89.652,64.639z"/>
		<path fill="#FF652A" d="M27.888,64.914c0-22.407,16.344-35.764,36.793-35.764c11.106,0,19.241,4.355,24.376,9.473l-6.554,7.623
			c-3.889-3.832-10.291-5.209-17.246-5.209c-12.768,0-21.695,8.816-21.695,23.419c0,14.785,7.682,23.691,22.733,23.691
			c3.737,0,7.474-0.917,9.654-2.569v-13.41H62.352V61.057h27.3v29.031c-6.509,6.325-14.214,10.053-24.906,10.053
			C43.777,100.141,27.888,87.597,27.888,64.914z"/>
	</g>
</g>
</svg>